<?xml version="1.0" encoding="utf-8"?>
<!-- Generator: Adobe Illustrator 19.0.0, SVG Export Plug-In . SVG Version: 6.00 Build 0)  -->
<svg version="1.1" id="Layer_1" xmlns="http://www.w3.org/2000/svg" xmlns:xlink="http://www.w3.org/1999/xlink" x="0px" y="0px"
	 viewBox="0 0 171.2 241.4" style="enable-background:new 0 0 171.2 241.4;" xml:space="preserve">
<style type="text/css">
	.st0{fill:#FDFBF5;}
	.st1{fill:#E6B52D;}
	.st2{fill:#E5B224;}
</style>
<path id="XMLID_103_" class="st0" d="M-310.9,241.3c-0.6-0.3-1.7,0.7-2-0.5c-0.2-1.1,0-2.3,0-3.5c0-73.6,0-147.1-0.1-220.7
	c0-3.5,0.6-4.4,4.3-4.4c50.4,0.2,100.9,0.1,151.3,0.2c1.2,0,4-1.6,3.5,1.9c-0.3,0.1-0.7,0.1-1,0.2c-1.5-0.1-3-0.3-4.5-0.3
	c-48.8,0-97.6,0.1-146.3-0.1c-4.5,0-5.4,1.3-5.4,5.6c0.1,71.9,0.1,143.8,0.1,215.7c0,1.6,0.3,3.3,0.4,4.9
	C-310.7,240.6-310.8,241-310.9,241.3z"/>
<path id="XMLID_102_" class="st1" d="M-310.9,241.3c0.1-0.3,0.2-0.7,0.3-1c49.8,0,99.7-0.1,149.5,0.1c5.2,0,6.3-1.5,6.3-6.4
	c-0.2-73.2-0.1-146.3-0.1-219.5c0.3-0.1,0.7-0.1,1-0.2c0,74.2,0,148.5,0.1,222.7c0,3.5-0.6,4.4-4.3,4.4
	C-209.1,241.3-260,241.3-310.9,241.3z"/>
<path id="XMLID_99_" class="st2" d="M-154.9,14.5c0,73.2-0.1,146.3,0.1,219.5c0,4.9-1,6.5-6.3,6.4c-49.8-0.2-99.7-0.1-149.5-0.1
	c-0.2-1.6-0.4-3.3-0.4-4.9c0-71.9,0-143.8-0.1-215.7c0-4.3,0.9-5.6,5.4-5.6c48.8,0.2,97.6,0.1,146.3,0.1
	C-157.9,14.2-156.4,14.4-154.9,14.5z M-273.3,155.4c0.9,4.3,1.4,8,2.6,11.4c1.1,3-0.1,4.2-2.6,5.3c-4.2,1.8-8.5,2.9-13,3.1
	c-1.8,0.1-3.6,0.4-3.4,2.6c0.1,2.2,2,2.5,3.7,2.3c3.1-0.4,6.3-0.7,9.3-1.5c2.8-0.7,6.5-3.5,8.1-2.6c2.3,1.3,2.7,5.4,4.4,8.1
	c2.1,3.3,0.6,4.5-2.3,5.7c-6.1,2.4-12.4,3.9-18.9,4.3c-2,0.1-4.5-0.2-4.3,2.7c0.3,2.8,2.8,2.4,4.8,2.3c5.7-0.4,11.2-1.3,16.6-3.1
	c8.8-3.1,8.6-2.9,14.3,4.2c2.6,3.2,1.4,4.1-1.6,5.5c-9.5,4.5-19.5,6.7-29.8,7.4c-1.9,0.1-4.6-0.3-4.2,2.7c0.3,2.6,2.8,2.3,4.8,2.2
	c11.8-0.6,23.1-3.2,33.5-8.9c2.7-1.5,4.2-0.9,6.4,1c13.7,11.9,10.5,12.6,24.4,0c2.4-2.2,4.1-2.4,6.8-0.9c10.4,5.7,21.7,8.2,33.5,8.8
	c2.1,0.1,4.4,0.1,4.6-2.5c0.2-2.7-2.2-2.3-4-2.4c-9.2-0.7-18.1-2.2-26.7-5.9c-7.5-3.3-7.5-3.3-2.9-9.7c0.6-0.8,1.2-1.6,1.7-2.5
	c1.2-2.6,2.7-2.5,5.1-1.3c7.3,3.5,15.1,5.1,23.1,5.4c1.8,0.1,3.6-0.4,3.7-2.4c0.2-2.3-1.6-2.5-3.4-2.6c-5-0.2-9.9-1-14.7-2.5
	c-9.2-2.9-9.2-2.9-5.5-11.4c0.2-0.5,0.4-0.9,0.5-1.4c0.8-2.8,2.2-3.6,5.1-2.1c4.6,2.4,9.7,3.3,14.9,3.5c1.7,0,3.1-0.6,3.2-2.4
	c0.1-1.9-1.3-2.4-3-2.5c-2.5-0.2-5-0.5-7.4-1.1c-9-2-9.6-3-7.5-12c0.3-1.1,0.5-2.3,0.6-3.4c0.3-2.5,1.2-3.4,3.4-1.5
	c2.5,2.1,5.4,3.3,8.6,3.7c1.9,0.3,4.4,1,5-1.8c0.7-3-1.9-2.8-3.8-3.1c-7.3-1.4-11.2-5.7-11.3-12.9c-0.2-19.2-0.3-38.3-0.2-57.5
	c0-3.7-0.9-6.4-4.4-8.1c-3.7-1.8-7.2-4.3-10.9-6c-3.3-1.5-4.7-3.5-4.4-7.2c0.4-4.5,0-9,0.1-13.5c0.1-2.7-1-4.3-3.3-5.6
	c-5.3-2.9-10.5-5.8-15.6-8.9c-1.9-1.1-3.5-1.3-5.5-0.1c-5.1,3.1-10.3,6.1-15.6,8.9c-2.7,1.4-3.7,3.4-3.7,6.4c0.1,7.3,0.1,14.7,0,22
	c0,5.7,1.4,12.1-0.7,16.7c-2.2,4.8-9.2,6-14,9c-0.1,0.1-0.3,0.2-0.4,0.3c-3.2,1.3-4.2,3.7-4.1,7.1c0.1,11.7,0.1,23.3-0.1,35
	c-0.1,8.5-3.9,12.8-12.2,14.4c-1.9,0.4-4,0.4-3.5,3c0.5,2.5,2.8,2.1,4.5,1.9C-280.7,160.7-276.9,158.5-273.3,155.4z"/>
<path id="XMLID_84_" class="st2" d="M-221.8,170.4c-5.2-8.2-8-16-8.1-24.7c-0.2-19.2,0-38.3-0.3-57.5c-0.1-3.9,1-6.2,4.6-7.8
	c3-1.3,5.8-3.2,8.7-4.8c1.6,1,0.9,2.5,0.9,3.6c0.1,22,0.1,44,0,66C-216,153.6-217.8,161.7-221.8,170.4z"/>
<path id="XMLID_83_" class="st1" d="M-210.8,75c4.6,2.6,8.2,4.8,12.1,6.8c2,1,2.2,2.6,2.2,4.5c-0.1,21.3-0.2,42.6-0.4,63.9
	c-0.1,5.3-1.2,10.5-3,16.2c-7.1-5.7-10.6-13-10.7-21.2C-211.1,122.1-210.8,99-210.8,75z"/>
<path id="XMLID_82_" class="st1" d="M-243.8,170.9c-9.5-24.3-4.2-48.9-6.2-73.7c5.5,2,9.5,4.8,13.7,7.2c0.9,0.5,1.1,1.6,1.1,2.7
	c-0.3,14.9,0.9,29.9-0.8,44.8C-236.8,158.5-239.5,164.6-243.8,170.9z"/>
<path id="XMLID_81_" class="st1" d="M-265.3,166.8c-2.9-9.7-3.5-18.7-3.5-27.9c0.1-9.8,0.2-19.6-0.1-29.4c-0.1-3.6,1.2-5.3,4.2-6.9
	c10.5-5.8,10.5-5.8,10.4,5.8c-0.1,12.5,0.4,24.9-0.5,37.4C-255.4,154-258.9,160.6-265.3,166.8z"/>
<path id="XMLID_80_" class="st1" d="M-235.1,42.2c0,18.6,0,36.2,0,53.7c0,2.7-1.1,2.7-3,1.6c-3-1.8-6-3.5-9.1-5.1
	c-1.6-0.9-2.4-2.2-2.4-4c0-11.8,0-23.6,0-35.4c0-1.6,0.4-2.9,1.9-3.7C-243.7,47.1-239.9,44.9-235.1,42.2z"/>
<path id="XMLID_79_" class="st2" d="M-229.7,42.6c4.2,2.3,7.9,4.3,11.6,6.6c3.3,2,3.3,19.5-0.2,21.3c-3.7,2-7.6,6.6-11.1,5.1
	c-2.3-1-0.6-7.3-0.7-11.3c-0.1-6.6,0-13.3,0-19.9C-230,44-229.9,43.6-229.7,42.6z"/>
<path id="XMLID_78_" class="st1" d="M-232.7,160.7c2.1,4,3.8,7.8,5.8,11.4c2.1,3.8-1,13.4-5.1,15c-0.3,0.1-0.6,0.2-0.9,0.2
	c-3.1-0.5-8.1-11.2-6.3-13.8C-236.6,169.6-234.8,165.3-232.7,160.7z"/>
<path id="XMLID_77_" class="st1" d="M-253.1,159.5c1.9,5.2,3.4,9.8,5.3,14.1c1.2,2.7-0.8,3.7-2.1,5c-7.5,7.9-8.3,7.7-12.3-2.4
	c-1.1-2.6-1.3-4.5,1.2-6.5C-257.7,167.1-255.6,163.4-253.1,159.5z"/>
<path id="XMLID_76_" class="st1" d="M-212.3,159.4c2.7,4.5,5.5,8.3,9.2,11.4c2.3,1.9,0.6,3.7-0.2,5.3c-4.2,9.3-2.6,11.5-12.1,2.4
	c-2.3-2.1-2.8-3.9-1.4-6.9C-215,168-213.9,164-212.3,159.4z"/>
<path id="XMLID_75_" class="st1" d="M-222.2,204.8c-0.7,0.7-1.3,1.5-2,2.2c-7.6,7.7-10.6,7.5-17.6-0.6c-1.1-1.3-1.6-2.1,0.1-3.1
	c0.6-0.3,1-0.9,1.6-1.2c2.8-1.6,4.8-6.2,7.8-5.4c3.4,0.9,6,4.5,9,6.9C-222.9,203.8-222.6,204.2-222.2,204.8z"/>
<path id="XMLID_74_" class="st1" d="M-246.4,200.5c-0.7-0.5-1.4-0.8-1.8-1.2c-2-2.6-4-5.3-6-8c-0.5-0.7-1-1.5-0.2-2.2
	c3-2.6,6-5.2,9-7.8c0.1-0.1,0.4-0.2,0.5-0.1c3.4,2.5,5,6.4,7.6,9.5c1.7,2-0.7,2.9-1.8,3.9C-241.4,196.6-243.9,198.5-246.4,200.5z"/>
<path id="XMLID_73_" class="st1" d="M-218.3,200.6c-4-2.3-7.4-4.8-9.9-8c-1.5-1.9,1.3-3.3,2.3-4.8c5-6.8,4.8-6.4,11.6-1.5
	c3.9,2.9,3.8,5,0.9,8.2C-215.1,196.3-216.6,198.5-218.3,200.6z"/>
<path id="XMLID_85_" class="st2" d="M43.7,149.4c-3.8,3.2-7.6,5.4-12.1,5.9c-1.8,0.2-4.1,0.6-4.6-1.9c-0.5-2.7,1.6-2.7,3.5-3.1
	c8.5-1.7,12.4-6.1,12.5-14.8c0.2-11.9,0.2-23.9,0.1-35.8c0-3.5,0.9-6,4.2-7.3c0.2-0.1,0.3-0.2,0.4-0.3c4.9-3.1,12-4.3,14.3-9.2
	c2.2-4.8,0.7-11.4,0.8-17.1c0.1-7.5,0.1-15,0-22.5c-0.1-3.1,1-5.1,3.8-6.6c5.4-2.9,10.7-6,16-9.1c2.1-1.3,3.7-1,5.7,0.1
	c5.3,3.1,10.6,6.2,16,9.1c2.4,1.3,3.5,3,3.4,5.7c-0.1,4.6,0.2,9.2-0.1,13.8c-0.3,3.8,1.2,5.9,4.5,7.4c3.9,1.8,7.4,4.3,11.2,6.2
	c3.6,1.8,4.6,4.5,4.5,8.3c-0.1,19.6,0,39.2,0.2,58.8c0.1,7.4,4.1,11.8,11.6,13.2c2,0.4,4.6,0.1,3.9,3.2c-0.6,2.8-3.2,2.1-5.1,1.8
	c-3.2-0.4-6.3-1.6-8.8-3.8c-2.3-1.9-3.2-1.1-3.5,1.5c-0.1,1.2-0.4,2.4-0.6,3.5c-2.1,9.2-1.5,10.2,7.7,12.2c2.5,0.6,5,0.8,7.6,1.1
	c1.7,0.2,3.2,0.6,3,2.6c-0.1,1.8-1.5,2.5-3.3,2.5c-5.4-0.1-10.6-1.1-15.3-3.5c-3-1.5-4.3-0.7-5.2,2.2c-0.1,0.5-0.3,1-0.5,1.4
	c-3.8,8.7-3.8,8.7,5.6,11.7c4.9,1.6,9.9,2.3,15.1,2.5c1.8,0.1,3.7,0.3,3.5,2.7c-0.2,2.1-1.9,2.6-3.8,2.5c-8.3-0.3-16.3-1.9-23.7-5.6
	c-2.4-1.2-4-1.3-5.2,1.4c-0.4,0.9-1.1,1.7-1.7,2.6c-4.7,6.6-4.7,6.6,3,9.9c8.7,3.8,17.9,5.4,27.3,6c1.8,0.1,4.3-0.3,4.1,2.5
	c-0.2,2.7-2.5,2.7-4.7,2.6c-12.1-0.6-23.6-3.2-34.3-9c-2.8-1.5-4.5-1.3-7,0.9c-14.2,12.8-11,12.1-25,0c-2.3-2-3.8-2.5-6.5-1
	c-10.7,5.8-22.2,8.5-34.3,9.1c-2.1,0.1-4.6,0.4-4.9-2.3c-0.4-3.1,2.3-2.7,4.3-2.8c10.6-0.7,20.9-3,30.6-7.6c3-1.4,4.3-2.4,1.6-5.7
	c-5.8-7.3-5.6-7.4-14.6-4.3c-5.5,1.9-11.2,2.8-17,3.2c-2,0.1-4.6,0.5-4.9-2.3c-0.3-3,2.3-2.7,4.4-2.8c6.7-0.4,13.1-1.9,19.3-4.4
	c3.1-1.2,4.5-2.5,2.4-5.9c-1.7-2.7-2.2-6.9-4.5-8.3c-1.7-1-5.4,1.9-8.3,2.6c-3.1,0.8-6.4,1.2-9.6,1.5c-1.8,0.2-3.7-0.1-3.8-2.4
	c-0.1-2.3,1.7-2.6,3.5-2.7c4.6-0.3,9.1-1.4,13.3-3.2c2.5-1.1,3.7-2.3,2.6-5.4C45.1,157.5,44.6,153.8,43.7,149.4z M96.4,164.7
	c4.1-8.9,5.9-17.2,5.9-25.7c0.1-22.5,0.1-45,0-67.6c0-1.2,0.7-2.7-0.9-3.7c-3,1.7-5.8,3.6-8.9,4.9c-3.7,1.6-4.7,4-4.7,7.9
	c0.3,19.6,0.1,39.2,0.3,58.8C88.2,148.3,91,156.3,96.4,164.7z M107.6,67.1c0,24.6-0.3,48.2,0.1,71.9c0.1,8.4,3.7,15.9,11,21.7
	c1.9-5.9,3-11.2,3.1-16.6c0.3-21.8,0.3-43.6,0.4-65.4c0-2-0.2-3.6-2.3-4.6C116.1,72,112.3,69.7,107.6,67.1z M73.9,165.3
	c4.3-6.5,7.2-12.7,7.9-19.5c1.7-15.3,0.5-30.6,0.8-45.9c0-1.1-0.1-2.2-1.1-2.7c-4.3-2.5-8.4-5.4-14-7.4
	C69.6,115.2,64.2,140.4,73.9,165.3z M51.8,161c6.6-6.3,10.2-13.1,10.8-21.5c0.9-12.8,0.4-25.5,0.5-38.3c0.1-12,0.1-11.9-10.6-6
	c-3,1.7-4.4,3.4-4.3,7.1c0.3,10,0.2,20.1,0.1,30.1C48.2,141.9,48.8,151.1,51.8,161z M82.8,33.5c-4.9,2.8-8.9,5-12.9,7.2
	c-1.6,0.9-2,2.2-2,3.8c0,12.1,0,24.2,0,36.3c0,1.9,0.7,3.2,2.4,4.1c3.1,1.7,6.2,3.5,9.3,5.3c2,1.2,3.1,1.1,3.1-1.6
	C82.8,70.5,82.8,52.5,82.8,33.5z M88.3,33.8c-0.2,1.1-0.3,1.4-0.3,1.8c0,6.8-0.1,13.6,0,20.4c0.1,4-1.7,10.5,0.7,11.5
	c3.6,1.6,7.6-3.2,11.4-5.2c3.5-1.9,3.6-19.7,0.2-21.8C96.5,38.3,92.6,36.2,88.3,33.8z M85.2,154.8c-2.1,4.7-4,9.1-6.7,13
	c-1.8,2.7,3.2,13.7,6.4,14.1c0.3,0,0.6,0,0.9-0.2c4.2-1.6,7.5-11.5,5.3-15.4C89.1,162.8,87.3,158.9,85.2,154.8z M64.3,153.5
	c-2.6,4-4.7,7.8-8,10.5c-2.5,2-2.3,4-1.2,6.7c4.2,10.3,4.9,10.5,12.6,2.4c1.3-1.3,3.3-2.3,2.1-5.1C67.8,163.5,66.3,158.8,64.3,153.5
	z M106.1,153.5c-1.7,4.7-2.8,8.8-4.6,12.6c-1.4,3-0.9,4.8,1.4,7c9.8,9.3,8.1,7.1,12.4-2.4c0.8-1.7,2.5-3.6,0.2-5.5
	C111.8,162,108.9,158,106.1,153.5z M96,199.9c-0.5-0.5-0.8-1-1.1-1.3c-3-2.5-5.7-6.1-9.2-7c-3-0.8-5.1,3.8-7.9,5.5
	c-0.6,0.3-1.1,0.9-1.6,1.2c-1.7,1-1.2,1.9-0.1,3.2c7.2,8.3,10.2,8.5,18,0.6C94.7,201.4,95.3,200.7,96,199.9z M71.2,195.6
	c2.6-2.1,5.2-4,7.6-6.1c1.1-1,3.5-1.9,1.8-4c-2.7-3.2-4.4-7.2-7.8-9.7c-0.1-0.1-0.3,0-0.5,0.1c-3.1,2.6-6.2,5.3-9.3,8
	c-0.8,0.7-0.3,1.6,0.2,2.2c2,2.7,4,5.5,6.1,8.2C69.7,194.8,70.4,195.1,71.2,195.6z M100,195.6c1.7-2.1,3.3-4.3,5.1-6.3
	c3-3.2,3.1-5.4-0.9-8.4c-7-5.1-6.8-5.4-11.9,1.5c-1.1,1.5-3.9,3-2.4,4.9C92.5,190.7,95.9,193.3,100,195.6z"/>
<g id="XMLID_2_">
	<path id="XMLID_3_" class="st2" d="M250.4,138.7c0.4,1,0.8,2,1.2,3c0.4-1.1,0.8-2.1,1.2-3c0.4-1,0.9-1.9,1.4-2.9l27.5-49.9
		c0.5-0.9,1-1.4,1.5-1.6c0.5-0.2,1.3-0.3,2.3-0.3h8.1v81.2h-9.6v-59.6c0-0.8,0-1.6,0.1-2.5c0-0.9,0.1-1.8,0.2-2.8L256.3,151
		c-0.9,1.7-2.3,2.5-4,2.5h-1.6c-1.7,0-3-0.8-4-2.5l-28.4-50.9c0.1,1,0.2,1.9,0.3,2.9c0.1,0.9,0.1,1.8,0.1,2.6v59.6h-9.6V84h8.1
		c1,0,1.7,0.1,2.3,0.3c0.5,0.2,1,0.7,1.5,1.6l28,49.9C249.5,136.8,250,137.7,250.4,138.7z"/>
	<path id="XMLID_5_" class="st2" d="M334.4,106.9c3.4,0,6.6,0.6,9.5,1.7c2.9,1.2,5.4,2.8,7.5,5c2.1,2.2,3.8,4.9,5,8
		c1.2,3.2,1.8,6.8,1.8,10.9c0,1.6-0.2,2.6-0.5,3.2c-0.3,0.5-1,0.8-1.9,0.8h-38.2c0.1,3.6,0.6,6.8,1.5,9.5c0.9,2.7,2.2,4.9,3.7,6.7
		c1.6,1.8,3.5,3.1,5.7,4c2.2,0.9,4.6,1.3,7.4,1.3c2.5,0,4.7-0.3,6.5-0.9c1.8-0.6,3.4-1.2,4.7-1.9c1.3-0.7,2.4-1.3,3.3-1.9
		c0.9-0.6,1.7-0.9,2.3-0.9c0.8,0,1.5,0.3,1.9,1l2.8,3.7c-1.2,1.5-2.7,2.8-4.5,3.9c-1.7,1.1-3.6,2-5.6,2.7c-2,0.7-4,1.3-6.1,1.6
		c-2.1,0.4-4.2,0.5-6.3,0.5c-4,0-7.6-0.7-11-2c-3.3-1.3-6.2-3.3-8.7-5.9c-2.4-2.6-4.3-5.8-5.7-9.6c-1.4-3.8-2-8.2-2-13.1
		c0-4,0.6-7.7,1.8-11.2c1.2-3.5,3-6.5,5.3-9c2.3-2.5,5.1-4.5,8.4-6C326.5,107.6,330.3,106.9,334.4,106.9z M334.6,114.3
		c-4.9,0-8.7,1.4-11.5,4.2c-2.8,2.8-4.5,6.7-5.2,11.7h31.2c0-2.3-0.3-4.5-1-6.4c-0.6-1.9-1.6-3.6-2.8-5c-1.2-1.4-2.8-2.5-4.6-3.3
		C339,114.7,336.9,114.3,334.6,114.3z"/>
	<path id="XMLID_8_" class="st2" d="M371.1,165.2v-57.4h6c1.4,0,2.3,0.7,2.7,2.1l0.7,5.9c2.1-2.6,4.5-4.7,7.1-6.4
		c2.6-1.7,5.7-2.5,9.1-2.5c3.9,0,7,1.1,9.4,3.2c2.4,2.2,4.1,5.1,5.2,8.7c0.8-2.1,1.8-3.9,3.1-5.4c1.3-1.5,2.8-2.8,4.4-3.7
		c1.6-1,3.4-1.7,5.2-2.2c1.8-0.5,3.7-0.7,5.6-0.7c3,0,5.7,0.5,8.1,1.4c2.4,1,4.4,2.4,6,4.2c1.6,1.9,2.9,4.1,3.8,6.8
		c0.9,2.7,1.3,5.8,1.3,9.3v36.5h-10.1v-36.5c0-4.5-1-7.9-2.9-10.2c-2-2.3-4.8-3.5-8.6-3.5c-1.7,0-3.2,0.3-4.7,0.9
		c-1.5,0.6-2.8,1.4-3.9,2.6c-1.1,1.1-2,2.6-2.7,4.3c-0.7,1.7-1,3.7-1,6v36.5h-10.1v-36.5c0-4.6-0.9-8-2.8-10.3
		c-1.9-2.3-4.5-3.4-8.1-3.4c-2.5,0-4.8,0.7-6.9,2c-2.1,1.3-4.1,3.2-5.9,5.5v42.8H371.1z"/>
	<path id="XMLID_10_" class="st2" d="M464,184.6v-76.8h6c1.4,0,2.3,0.7,2.7,2.1l0.8,6.8c2.5-3,5.3-5.4,8.4-7.2
		c3.2-1.8,6.8-2.7,10.9-2.7c3.3,0,6.3,0.6,8.9,1.9c2.7,1.3,5,3.1,6.9,5.6c1.9,2.5,3.3,5.5,4.4,9.2c1,3.7,1.5,7.9,1.5,12.6
		c0,4.2-0.6,8.2-1.7,11.8c-1.1,3.6-2.8,6.8-4.9,9.5c-2.1,2.7-4.7,4.8-7.8,6.3c-3.1,1.5-6.5,2.3-10.4,2.3c-3.5,0-6.6-0.6-9.1-1.8
		c-2.5-1.2-4.7-2.8-6.7-5v25.4H464z M489.6,115c-3.3,0-6.2,0.8-8.6,2.3c-2.5,1.5-4.7,3.6-6.8,6.4v27.8c1.8,2.5,3.9,4.2,6.1,5.3
		c2.2,1,4.7,1.5,7.4,1.5c5.3,0,9.4-1.9,12.3-5.7c2.9-3.8,4.3-9.2,4.3-16.3c0-3.7-0.3-6.9-1-9.6c-0.7-2.7-1.6-4.9-2.9-6.6
		c-1.2-1.7-2.8-3-4.6-3.8C493.9,115.4,491.9,115,489.6,115z"/>
	<path id="XMLID_13_" class="st2" d="M526.6,165.2V81.8h10.1v33.8c2.5-2.6,5.2-4.7,8.2-6.3c3-1.6,6.4-2.4,10.3-2.4
		c3.1,0,5.9,0.5,8.3,1.6c2.4,1,4.4,2.5,6,4.4c1.6,1.9,2.8,4.2,3.7,6.9c0.8,2.7,1.2,5.6,1.2,8.9v36.5h-10.1v-36.5c0-4.3-1-7.7-3-10.1
		c-2-2.4-5-3.6-9.1-3.6c-3,0-5.8,0.7-8.4,2.2c-2.6,1.4-5,3.4-7.2,5.8v42.2H526.6z"/>
	<path id="XMLID_15_" class="st2" d="M603,89.8c0,1-0.2,1.9-0.6,2.7c-0.4,0.8-0.9,1.6-1.6,2.3c-0.7,0.7-1.4,1.2-2.3,1.6
		c-0.9,0.4-1.8,0.6-2.8,0.6c-1,0-1.9-0.2-2.7-0.6c-0.8-0.4-1.6-0.9-2.3-1.6c-0.7-0.7-1.2-1.4-1.6-2.3c-0.4-0.8-0.6-1.8-0.6-2.7
		c0-1,0.2-1.9,0.6-2.8c0.4-0.9,0.9-1.7,1.6-2.3c0.7-0.7,1.4-1.2,2.3-1.6c0.8-0.4,1.8-0.6,2.7-0.6c1,0,1.9,0.2,2.8,0.6
		c0.9,0.4,1.6,0.9,2.3,1.6c0.7,0.7,1.2,1.4,1.6,2.3C602.8,87.9,603,88.8,603,89.8z M600.8,107.8v57.4h-10.1v-57.4H600.8z"/>
	<path id="XMLID_18_" class="st2" d="M651.4,117.3c-0.5,0.8-1.2,1.2-2.1,1.2c-0.6,0-1.2-0.2-1.9-0.6c-0.7-0.4-1.6-0.9-2.6-1.4
		c-1-0.5-2.3-1-3.7-1.4c-1.4-0.4-3.1-0.7-5.1-0.7c-1.7,0-3.2,0.2-4.6,0.7c-1.4,0.4-2.5,1-3.5,1.8c-1,0.8-1.7,1.6-2.2,2.6
		c-0.5,1-0.8,2.1-0.8,3.3c0,1.5,0.4,2.7,1.3,3.7c0.8,1,2,1.8,3.4,2.5c1.4,0.7,3,1.4,4.8,1.9c1.8,0.5,3.6,1.1,5.5,1.8
		c1.9,0.6,3.7,1.3,5.5,2.1c1.8,0.8,3.4,1.7,4.8,2.8c1.4,1.1,2.5,2.5,3.4,4.2c0.8,1.6,1.3,3.6,1.3,5.9c0,2.6-0.5,5.1-1.4,7.3
		c-0.9,2.2-2.3,4.2-4.2,5.8s-4.1,2.9-6.8,3.9s-5.8,1.4-9.3,1.4c-4,0-7.6-0.7-10.9-2c-3.2-1.3-6-3-8.3-5l2.4-3.9
		c0.3-0.5,0.7-0.9,1.1-1.1c0.4-0.3,1-0.4,1.6-0.4s1.4,0.3,2.2,0.8c0.8,0.5,1.7,1.1,2.7,1.8c1.1,0.6,2.4,1.2,3.9,1.8
		c1.5,0.5,3.4,0.8,5.7,0.8c2,0,3.7-0.3,5.2-0.8s2.7-1.2,3.7-2.1c1-0.9,1.7-1.9,2.2-3c0.5-1.1,0.7-2.3,0.7-3.6c0-1.6-0.4-2.9-1.3-3.9
		c-0.8-1-2-1.9-3.4-2.7c-1.4-0.7-3-1.4-4.8-1.9c-1.8-0.5-3.6-1.1-5.5-1.7c-1.9-0.6-3.7-1.3-5.5-2.1c-1.8-0.8-3.4-1.7-4.8-2.9
		c-1.4-1.2-2.5-2.6-3.4-4.3c-0.8-1.7-1.3-3.8-1.3-6.3c0-2.2,0.5-4.3,1.4-6.3c0.9-2,2.2-3.8,4-5.3c1.7-1.5,3.9-2.7,6.4-3.7
		s5.4-1.4,8.7-1.4c3.8,0,7.2,0.6,10.2,1.8c3,1.2,5.6,2.8,7.8,4.9L651.4,117.3z"/>
	<path id="XMLID_20_" class="st2" d="M735.1,165.2h-11v-36.9h-43.7v36.9h-11V84h11v36.2H724V84h11V165.2z"/>
	<path id="XMLID_22_" class="st2" d="M762,107.8v36.6c0,4.3,1,7.7,3,10.1c2,2.4,5,3.6,9.1,3.6c2.9,0,5.7-0.7,8.3-2.1
		c2.6-1.4,5-3.3,7.2-5.8v-42.3h10.1v57.4h-6c-1.4,0-2.3-0.7-2.7-2.1l-0.8-6.2c-2.5,2.8-5.3,5-8.4,6.7c-3.1,1.7-6.6,2.5-10.6,2.5
		c-3.1,0-5.9-0.5-8.3-1.6s-4.4-2.5-6-4.4c-1.6-1.9-2.8-4.2-3.7-6.9c-0.8-2.7-1.2-5.6-1.2-8.9v-36.6H762z"/>
	<path id="XMLID_24_" class="st2" d="M816.6,165.2V81.8h10.1v34.3c2.4-2.8,5.1-5,8.2-6.7c3.1-1.7,6.6-2.5,10.6-2.5
		c3.3,0,6.3,0.6,9,1.9s5,3.1,6.9,5.6c1.9,2.5,3.3,5.5,4.4,9.2c1,3.6,1.5,7.8,1.5,12.6c0,4.2-0.6,8.2-1.7,11.8
		c-1.1,3.6-2.8,6.8-4.9,9.5c-2.1,2.7-4.7,4.8-7.8,6.3c-3.1,1.5-6.5,2.3-10.4,2.3c-3.7,0-6.8-0.7-9.4-2.2c-2.6-1.4-4.8-3.4-6.8-6
		l-0.5,5.2c-0.3,1.4-1.2,2.2-2.6,2.2H816.6z M842.2,115c-3.3,0-6.2,0.8-8.6,2.3c-2.5,1.5-4.7,3.6-6.8,6.4v27.8
		c1.8,2.5,3.8,4.2,6,5.3c2.2,1,4.7,1.5,7.4,1.5c5.4,0,9.5-1.9,12.3-5.7c2.9-3.8,4.3-9.2,4.3-16.3c0-3.7-0.3-6.9-1-9.6
		c-0.7-2.7-1.6-4.9-2.9-6.6c-1.2-1.7-2.8-3-4.6-3.8C846.6,115.4,844.5,115,842.2,115z"/>
</g>
</svg>
